# xmcd
#
# Track frame offsets:
#	150
#	16117
#	33366
#	46261
#	60642
#	75689
#
# Disc length: 1177 seconds
#
# Revision: 2
# Processed by: cddbd v1.5.2PL0 Copyright (c) Steve Scherf et al.
# Submitted via: EZCDAudioConverter 3.1.7.1
#
DISCID=3c049706
DTITLE=John Rich - Rich Rocks
DYEAR=2011
DGENRE=Country
TTITLE0=Country Done Come To Town
TTITLE1=You Had Me From Hell No
TTITLE2=Mack Truck
TTITLE3=You Rock Me
TTITLE4=Texas
TTITLE5=John Rich - Let Somebody Else Drive
EXTD=
EXTT0=
EXTT1=
EXTT2=
EXTT3=
EXTT4=
EXTT5=
PLAYORDER=
